<svg xmlns="http://www.w3.org/2000/svg" width="440" height="220" viewBox="0 0 440 220" fill="none"><g clip-path="url(#clip0_967_1715)"><path d="M362.284 145.053C361.897 145.048 361.501 145.016 361.134 144.905C360.946 144.851 360.749 144.621 360.68 144.426C360.579 144.14 360.569 143.817 360.554 143.509C360.513 142.652 360.485 141.794 360.453 140.938C358.245 140.938 356.037 140.938 353.832 140.938C353.28 140.938 352.725 140.972 352.176 140.935C351.345 140.878 350.843 141.283 350.525 142.001C350.493 142.073 350.456 142.142 350.419 142.213C348.871 145.142 347.319 148.068 345.781 151.002C343.95 154.495 342.134 157.994 340.303 161.488C336.934 167.915 333.565 174.342 330.192 180.767C328.725 183.56 327.249 186.348 325.776 189.139C325.628 189.418 325.477 189.694 325.325 189.97C325.177 190.237 324.871 190.4 324.765 190.269C324.677 190.16 324.556 190.042 324.543 189.916C324.334 187.878 324.142 185.838 323.94 183.797C323.91 183.484 323.851 183.173 323.814 182.86C323.57 180.827 323.311 178.794 323.092 176.758C322.873 174.72 322.715 172.677 322.486 170.642C322.257 168.606 321.944 166.58 321.719 164.545C321.485 162.43 321.313 160.308 321.111 158.189C321.081 157.876 321.022 157.565 320.985 157.251C320.884 156.39 320.78 155.532 320.689 154.668C320.638 154.197 320.623 153.723 320.566 153.254C320.317 151.221 320.044 149.191 319.807 147.158C319.598 145.357 319.428 143.553 319.238 141.749C319.193 141.332 318.871 141.004 318.474 140.987C317.924 140.96 317.372 140.94 316.82 140.94C311.616 140.938 306.414 140.933 301.209 140.94C298.811 140.945 298.942 140.711 297.749 142.973C294.989 148.206 292.214 153.43 289.454 158.663C286.179 164.873 282.916 171.088 279.646 177.301C277.625 181.14 275.605 184.979 273.579 188.816C273.434 189.092 273.281 189.371 273.089 189.615C273.015 189.706 272.818 189.711 272.675 189.726C272.638 189.731 272.559 189.632 272.551 189.576C272.34 187.777 272.135 185.976 271.928 184.177C271.884 183.785 271.847 183.393 271.795 183.003C271.546 181.128 271.275 179.257 271.051 177.38C270.79 175.189 270.555 172.998 270.237 170.814C269.976 169.02 269.816 167.214 269.614 165.413C269.402 163.533 269.271 161.641 268.956 159.778C268.744 158.527 268.705 157.266 268.537 156.018C268.254 153.911 267.983 151.801 267.726 149.689C267.51 147.89 267.337 146.084 267.113 144.286C266.997 143.348 266.834 142.415 266.64 141.493C266.603 141.313 266.356 141.108 266.166 141.044C265.876 140.95 265.545 140.945 265.232 140.945C259.005 140.94 252.775 140.94 246.548 140.945C246.235 140.945 245.922 140.992 245.607 141.019C245.429 141.036 245.148 141.327 245.153 141.5C245.161 141.813 245.136 142.129 245.175 142.438C245.419 144.313 245.695 146.183 245.925 148.058C246.191 150.247 246.427 152.44 246.75 154.624C247.016 156.415 247.169 158.224 247.374 160.025C247.571 161.747 247.761 163.472 247.975 165.191C248.229 167.224 248.52 169.25 248.766 171.283C248.985 173.082 249.069 174.905 249.397 176.681C249.656 178.088 249.688 179.504 249.9 180.908C250.171 182.699 250.439 184.493 250.631 186.294C250.875 188.566 251.161 190.831 251.479 193.094C251.721 194.811 251.888 196.536 252.085 198.261C252.297 200.141 252.485 202.023 252.719 203.898C252.943 205.697 253.276 207.481 253.451 209.282C253.727 212.107 254.155 214.912 254.491 217.728C254.5 217.804 254.528 217.881 254.54 217.957C254.594 218.256 254.882 218.544 255.173 218.562C255.723 218.591 256.272 218.626 256.824 218.626C263.209 218.631 269.597 218.628 275.982 218.626C276.455 218.626 276.928 218.616 277.401 218.608C277.919 218.601 278.301 218.354 278.564 217.923C278.769 217.587 278.966 217.244 279.151 216.896C283.429 208.808 287.705 200.72 291.978 192.63C295.329 186.284 298.676 179.933 302.027 173.587C302.172 173.311 302.323 173.027 302.513 172.783C302.586 172.689 302.781 172.68 302.924 172.657C302.966 172.65 303.062 172.734 303.067 172.783C303.267 174.345 303.469 175.907 303.651 177.471C303.87 179.349 303.976 181.248 304.311 183.104C304.551 184.431 304.57 185.771 304.772 187.096C305.046 188.887 305.329 190.681 305.489 192.482C305.704 194.917 306.049 197.333 306.374 199.756C306.603 201.473 306.776 203.2 306.968 204.922C307.177 206.802 307.34 208.687 307.599 210.56C307.909 212.823 308.237 215.085 308.439 217.36C308.528 218.364 308.769 218.589 309.755 218.616C309.992 218.623 310.228 218.621 310.465 218.621C317.086 218.621 323.711 218.621 330.332 218.621C330.726 218.621 331.121 218.613 331.513 218.584C331.838 218.559 332.134 218.416 332.311 218.142C332.612 217.681 332.902 217.212 333.156 216.723C337.075 209.25 340.988 201.772 344.901 194.293C346.183 191.848 347.459 189.4 348.743 186.958C351.971 180.814 355.217 174.678 358.433 168.527C361.429 162.795 364.394 157.047 367.376 151.308C367.812 150.469 368.285 149.647 368.721 148.808C369.34 147.624 370.067 146.489 370.466 145.199C369.687 145.159 368.911 145.095 368.132 145.085C366.18 145.06 364.229 145.068 362.279 145.046L362.284 145.053Z" fill="#46B9BA"></path><path d="M16.0982 123.953C28.8707 123.955 41.6457 123.948 54.4182 123.953C57.8954 123.953 61.3331 123.612 64.7609 123.018C70.1725 122.077 75.2786 120.303 80.0791 117.651C83.6917 115.655 86.9446 113.193 89.7613 110.148C95.8975 103.509 99.0419 95.5934 99.7492 86.6593C99.9291 84.3844 99.8749 82.0824 99.8354 79.7952C99.759 75.4182 98.8941 71.1744 97.3761 67.0787C94.6949 59.847 90.2591 53.9304 83.9357 49.4967C77.8883 45.2578 71.1312 42.7683 63.8861 41.5421C60.2241 40.9228 56.5153 40.7303 52.8139 40.7131C40.7512 40.6563 28.6859 40.6908 16.6231 40.6933C16.1499 40.6933 15.6768 40.6933 15.2037 40.7205C14.351 40.7698 14.181 41.0955 14.1539 41.7098C14.1243 42.4204 14.1292 43.131 14.1292 43.8416C14.1292 56.7086 14.1292 69.5781 14.1292 82.4451C14.1292 95.6279 14.1292 108.813 14.1317 121.996C14.1317 123.94 14.1465 123.955 16.0982 123.955V123.953ZM37.7151 62.3217C37.7151 61.6136 37.7398 60.903 37.7669 60.1949C37.7792 59.8742 38.0577 59.5707 38.3386 59.546C38.6516 59.5189 38.967 59.4868 39.28 59.4868C44.009 59.4868 48.738 59.4646 53.4695 59.4991C57.0575 59.5263 60.5075 60.2739 63.785 61.7444C68.0976 63.6788 71.4343 66.6864 73.6521 70.8956C74.5787 72.6524 75.1825 74.525 75.6063 76.4569C76.2766 79.4942 76.2939 82.5759 76.0204 85.6452C75.769 88.49 74.9977 91.2263 73.7039 93.7898C71.8729 97.4241 69.1006 100.158 65.5889 102.156C62.8116 103.736 59.8126 104.624 56.6435 104.994C54.3665 105.26 52.0894 105.324 49.8026 105.31C46.5718 105.29 43.3387 105.305 40.108 105.305C39.6348 105.305 39.1617 105.305 38.6885 105.29C38.033 105.268 37.7447 104.954 37.725 104.229C37.7077 103.597 37.7102 102.966 37.7102 102.334C37.7102 95.7044 37.7102 89.0748 37.7102 82.4451C37.7102 75.8154 37.7102 69.0279 37.7102 62.3193L37.7151 62.3217Z" fill="#F8B328"></path><path d="M271.555 123.365C271.496 123.518 271.755 123.869 271.925 123.879C272.317 123.901 272.709 123.953 273.098 123.953C279.959 123.958 286.817 123.958 293.678 123.953C293.993 123.953 294.308 123.95 294.621 123.916C294.952 123.881 295.225 123.701 295.366 123.407C295.637 122.84 295.878 122.255 296.117 121.673C297.815 117.51 299.535 113.358 301.189 109.178C301.558 108.243 302.032 107.696 303.079 107.834C303.155 107.844 303.237 107.834 303.316 107.834C313.959 107.834 324.605 107.834 335.248 107.836C335.64 107.836 336.042 107.836 336.424 107.91C336.631 107.95 336.867 108.11 336.985 108.285C337.202 108.608 337.36 108.976 337.508 109.339C339.023 113.064 340.529 116.793 342.04 120.521C342.395 121.399 342.735 122.282 343.109 123.151C343.304 123.602 343.624 123.938 344.176 123.933C344.492 123.93 344.807 123.95 345.123 123.95C348.592 123.95 352.062 123.95 355.529 123.95C358.841 123.95 362.153 123.953 365.463 123.948C366.013 123.948 366.562 123.913 367.112 123.881C367.405 123.864 367.619 123.479 367.501 123.168C367.306 122.652 367.112 122.137 366.887 121.633C365.221 117.886 363.541 114.145 361.882 110.395C357.93 101.451 353.987 92.5019 350.036 83.5554C345.608 73.5283 341.177 63.5011 336.741 53.474C335.115 49.7952 333.471 46.1239 331.833 42.45C331.672 42.0898 331.515 41.7271 331.322 41.3842C331.123 41.0264 330.817 40.7747 330.393 40.7377C330.002 40.7032 329.607 40.6884 329.213 40.6884C322.668 40.6859 316.125 40.7081 309.58 40.6662C308.409 40.6588 307.574 40.9203 307.286 42.1564C304.099 49.3708 300.918 56.5877 297.729 63.7997C294.54 71.0141 291.339 78.2211 288.158 85.438C284.722 93.2322 281.307 101.034 277.874 108.831C276.031 113.018 274.17 117.197 272.327 121.382C272.041 122.028 271.804 122.697 271.548 123.358L271.555 123.365ZM309.001 89.5929C309.213 89.0007 309.434 88.4086 309.671 87.8238C310.994 84.5325 312.325 81.2435 313.648 77.9497C315.265 73.9255 316.872 69.8964 318.493 65.8747C318.668 65.4429 318.9 65.0309 319.141 64.6311C319.183 64.5621 319.479 64.5423 319.528 64.604C319.671 64.7817 319.762 65.0062 319.851 65.2233C322.005 70.5626 324.154 75.9018 326.308 81.2386C327.251 83.5776 328.205 85.9142 329.146 88.2556C329.321 88.6923 329.472 89.1414 329.624 89.5904C329.723 89.8816 329.494 90.2986 329.225 90.3134C328.676 90.3454 328.126 90.38 327.577 90.38C324.738 90.3874 321.901 90.3824 319.062 90.3824C316.381 90.3824 313.703 90.3824 311.021 90.3824C310.548 90.3824 310.075 90.3701 309.604 90.3504C309.121 90.3306 308.855 89.9975 309.001 89.5904V89.5929Z" fill="#F8B328"></path><path d="M167.557 107.915C167.757 107.932 168.013 108.113 168.114 108.29C168.385 108.766 168.604 109.275 168.811 109.785C170.445 113.802 172.072 117.821 173.701 121.838C173.848 122.203 174.004 122.566 174.142 122.936C174.386 123.585 174.785 123.992 175.539 123.958C176.089 123.93 176.643 123.958 177.193 123.958C180.344 123.958 183.496 123.958 186.651 123.958C189.805 123.958 193.112 123.958 196.345 123.958C196.976 123.958 197.607 123.948 198.235 123.935C198.578 123.928 198.822 123.602 198.703 123.306C198.472 122.721 198.238 122.137 197.981 121.562C194.623 113.997 191.251 106.437 187.902 98.8675C182.575 86.8295 177.259 74.7841 171.939 62.7412C168.977 56.035 166.019 49.3264 163.045 42.6252C162.173 40.6612 162.274 40.6958 160.058 40.6958C153.91 40.6958 147.764 40.6909 141.618 40.6958C138.853 40.6983 139.156 40.5083 138.008 43.1088C134.757 50.4639 131.507 57.8189 128.256 65.174C125.26 71.9516 122.256 78.7244 119.269 85.507C115.361 94.3795 111.467 103.262 107.561 112.134C106.228 115.164 104.875 118.187 103.534 121.214C103.278 121.791 103.027 122.369 102.79 122.953C102.551 123.541 102.753 123.906 103.322 123.93C103.638 123.945 103.953 123.955 104.266 123.955C111.043 123.955 117.822 123.955 124.599 123.955C124.991 123.955 125.388 123.945 125.777 123.908C126.11 123.876 126.369 123.681 126.512 123.385C126.751 122.889 126.965 122.381 127.174 121.87C128.87 117.71 130.6 113.563 132.231 109.376C132.667 108.256 133.234 107.656 134.466 107.829C134.774 107.871 135.095 107.834 135.41 107.834C145.42 107.834 155.428 107.834 165.438 107.836C166.145 107.836 166.855 107.849 167.56 107.915H167.557ZM160.388 90.2936C159.92 90.3282 159.452 90.38 158.984 90.38C156.076 90.3874 153.165 90.3849 150.258 90.3849C147.584 90.3849 144.913 90.3874 142.239 90.3849C141.689 90.3849 141.14 90.3627 140.59 90.3405C140.289 90.3282 140.006 89.9581 140.097 89.699C140.277 89.1784 140.455 88.6578 140.659 88.1471C143.651 80.7057 146.645 73.2667 149.642 65.8278C149.787 65.4651 149.945 65.1024 150.134 64.7644C150.198 64.6509 150.386 64.5448 150.516 64.5448C150.62 64.5448 150.763 64.6978 150.815 64.8162C151.036 65.3195 151.229 65.8352 151.436 66.3459C154.346 73.5653 157.261 80.7846 160.167 88.0064C160.401 88.5862 160.576 89.1883 160.768 89.7829C160.82 89.9457 160.566 90.2837 160.388 90.2961V90.2936Z" fill="#F8B328"></path><path d="M72.0253 157.878C72.3359 157.851 72.639 157.617 72.7104 157.321C72.8952 156.556 73.0801 155.788 73.2378 155.019C73.669 152.936 74.0904 150.851 74.5069 148.766C74.985 146.371 75.4507 143.975 75.9214 141.577C75.9584 141.387 75.7366 141.051 75.5616 141.041C74.8568 141.002 74.152 140.945 73.4448 140.945C64.2209 140.938 54.997 140.94 45.7731 140.94C36.5492 140.94 27.3252 140.94 18.1013 140.94C17.3916 140.94 16.6819 140.95 15.9746 140.972C15.5631 140.984 15.2255 141.276 15.1466 141.678C14.7499 143.689 14.4049 145.709 13.9564 147.708C12.7784 152.936 11.8617 158.214 10.802 163.464C10.0849 167.017 9.37028 170.567 8.65563 174.12C7.95577 177.597 7.25344 181.071 6.55851 184.547C5.98679 187.404 5.42246 190.264 4.8532 193.124C4.33077 195.751 3.80094 198.377 3.27605 201.004C2.53429 204.713 1.79992 208.421 1.05077 212.127C0.723021 213.748 0.358303 215.364 0.0428715 216.987C-0.0310578 217.365 0.00590682 217.767 0.0404071 218.154C0.0502644 218.273 0.20798 218.455 0.323803 218.475C0.782164 218.554 1.25038 218.623 1.71614 218.623C7.78573 218.633 13.8578 218.631 19.9274 218.628C20.2428 218.628 20.5582 218.618 20.8712 218.604C21.401 218.576 21.714 218.34 21.852 217.765C22.1132 216.694 22.3572 215.618 22.5716 214.537C23.8875 207.893 25.1271 201.231 26.5317 194.604C27.1207 191.831 26.4775 192.033 29.6639 192.033C39.0455 192.033 48.4271 192.033 57.8088 192.033C58.4396 192.033 59.0705 192.033 59.7013 192.031C60.8004 192.028 61.2317 191.895 61.4732 190.644C62.2248 186.778 63.0405 182.924 63.8167 179.062C64.0484 177.905 64.2307 176.738 64.4304 175.576C64.4624 175.386 64.2184 175.102 64.0262 175.093C63.6319 175.073 63.2401 175.048 62.8458 175.048C60.0858 175.043 57.3282 175.048 54.5682 175.048C47.3946 175.048 40.221 175.048 33.0449 175.048C32.4929 175.048 31.9434 175.031 31.3914 175.006C30.9527 174.986 30.6151 174.658 30.6471 174.268C30.689 173.718 30.7161 173.163 30.8246 172.623C31.7314 168.066 32.658 163.511 33.5772 158.954C33.7226 158.231 33.9887 157.972 34.659 157.952C35.3687 157.932 36.0785 157.932 36.7882 157.932C47.6681 157.932 58.548 157.932 69.4255 157.932C70.0564 157.932 70.6872 157.935 71.3181 157.927C71.5547 157.925 71.7888 157.9 72.0253 157.881V157.878Z" fill="#46B9BA"></path><path d="M197.8 56.8073C197.8 57.4365 197.839 58.0656 197.871 58.6948C197.886 58.9736 198.209 59.3141 198.475 59.3264C199.182 59.361 199.89 59.4029 200.597 59.4029C207.137 59.4078 213.68 59.393 220.22 59.4103C223.771 59.4202 223.345 58.9958 223.347 62.5709C223.36 81.8233 223.352 101.076 223.352 120.328C223.352 120.96 223.36 121.591 223.352 122.221C223.333 123.879 223.535 123.958 225.09 123.955C231.788 123.955 238.488 123.955 245.186 123.955C245.423 123.955 245.659 123.95 245.896 123.943C246.63 123.913 246.894 123.666 246.911 122.953C246.928 122.164 246.928 121.374 246.928 120.587C246.928 101.256 246.928 81.9245 246.928 62.5931C246.928 61.8036 246.941 61.0165 246.96 60.227C246.973 59.7755 247.259 59.4671 247.678 59.4523C248.385 59.4251 249.095 59.4103 249.802 59.4103C256.342 59.4078 262.882 59.4103 269.425 59.4078C270.135 59.4078 270.845 59.4054 271.552 59.3856C272.069 59.3708 272.365 59.0303 272.39 58.4555C272.4 58.2186 272.404 57.9817 272.404 57.7449C272.404 52.6153 272.404 47.4883 272.404 42.3587C272.404 42.0454 272.377 41.7296 272.353 41.4162C272.331 41.1276 272.037 40.8093 271.739 40.792C270.955 40.7476 270.169 40.6982 269.383 40.6982C257.956 40.6933 246.529 40.6933 235.102 40.6933H214.059C209.488 40.6933 204.917 40.6908 200.348 40.6982C199.72 40.6982 199.091 40.7476 198.465 40.792C198.184 40.8117 197.886 41.1448 197.857 41.4286C197.834 41.663 197.805 41.8974 197.802 42.1342C197.795 42.8448 197.797 43.5554 197.797 44.2635C197.797 48.4456 197.795 52.6277 197.8 56.8098V56.8073Z" fill="#F8B328"></path><path d="M185.825 203.987L185.82 203.992C185.835 203.992 185.85 203.987 185.862 203.987V203.95C185.862 203.95 185.835 203.977 185.825 203.987Z" fill="#545453"></path><path d="M214.012 146.657C206.632 140.054 197.972 136.504 188.122 135.838C184.243 135.576 180.394 135.959 176.614 136.817C162.942 139.926 152.252 149.548 147.37 160.859C145.475 165.248 144.331 169.805 143.875 174.547C143.784 175.485 143.836 176.437 143.826 177.382C143.826 177.557 144.102 177.846 144.27 177.863C144.504 177.888 144.74 177.925 144.975 177.925C149.548 177.93 154.12 177.927 158.693 177.925C158.93 177.925 159.176 177.94 159.398 177.881C159.61 177.824 159.847 177.75 159.886 177.449C160.083 175.885 160.199 174.303 160.514 172.761C161.483 168.016 163.669 163.888 166.912 160.286C172.715 153.839 182.333 150.508 191.466 152.618C197.807 154.083 202.878 157.439 206.72 162.665C210.052 167.197 211.686 172.327 211.701 177.927C211.713 182.255 210.636 186.346 208.593 190.188C204.261 198.325 196.244 202.835 189.093 203.575C188.014 203.686 186.939 203.844 185.86 203.982C185.85 208.865 185.84 213.745 185.838 218.628C185.838 218.942 185.865 219.26 185.931 219.566C185.961 219.699 186.106 219.877 186.227 219.906C186.53 219.978 186.851 220 187.161 219.995C189.532 219.951 191.868 219.608 194.192 219.149C199.756 218.051 204.921 215.941 209.552 212.694C220.698 204.875 226.738 194.069 227.864 180.518C228.207 176.4 227.783 172.309 226.814 168.3C224.757 159.785 220.56 152.514 214.01 146.654L214.012 146.657Z" fill="#545453"></path><path d="M132.745 201.246C131.958 201.224 131.17 201.189 130.384 201.189C120.061 201.184 109.738 201.184 99.4148 201.189C95.807 201.189 96.6572 201.359 97.0564 198.258C97.1673 197.402 97.3916 196.561 97.5616 195.709C98.4561 191.231 99.3482 186.753 100.245 182.275C100.957 178.724 101.677 175.174 102.387 171.623C103.094 168.071 103.791 164.518 104.496 160.965C105.201 157.412 105.906 153.859 106.618 150.308C107.143 147.683 107.687 145.06 108.205 142.435C108.264 142.134 108.212 141.811 108.217 141.498C108.217 141.335 107.931 141.026 107.769 141.012C107.535 140.989 107.298 140.947 107.064 140.947C100.603 140.945 94.1411 140.945 87.6773 140.947C87.5195 140.947 87.3618 140.965 87.2066 140.982C86.8714 141.019 86.6028 141.177 86.4895 141.5C86.3367 141.944 86.1888 142.396 86.0976 142.857C85.7132 144.787 85.3633 146.726 84.9739 148.655C84.0892 153.055 83.1848 157.451 82.3026 161.85C81.5904 165.401 80.9127 168.959 80.2005 172.512C79.4908 176.062 78.7466 179.608 78.0369 183.161C77.3272 186.714 76.6519 190.271 75.9422 193.824C75.235 197.377 74.5006 200.923 73.7835 204.473C73.0343 208.177 72.2852 211.883 71.5508 215.588C71.3832 216.435 71.2773 217.293 71.1491 218.147C71.122 218.332 71.2157 218.475 71.4054 218.49C72.1053 218.547 72.8076 218.626 73.5099 218.626C82.4948 218.636 91.4772 218.631 100.46 218.631C109.442 218.631 118.269 218.631 127.173 218.631C127.882 218.631 128.59 218.613 129.297 218.586C129.635 218.574 129.881 218.399 130.009 218.073C130.354 217.182 130.453 216.24 130.643 215.315C131.498 211.15 132.387 206.992 133.255 202.83C133.319 202.524 133.309 202.203 133.331 201.89C133.348 201.638 133.003 201.258 132.74 201.251L132.745 201.246Z" fill="#46B9BA"></path><path d="M166.537 204.022C166.537 204.004 166.532 203.99 166.532 203.972C166.519 203.972 166.505 203.972 166.492 203.975C166.495 203.977 166.537 204.022 166.537 204.019V204.022Z" fill="#545453"></path><path d="M185.861 203.95C185.861 203.95 185.836 203.95 185.824 203.95C185.824 203.965 185.819 203.98 185.816 203.995C185.816 203.995 185.816 203.995 185.821 203.99L185.858 203.953L185.861 203.95Z" fill="#545453"></path><path d="M185.867 185.818C185.867 185.505 185.882 185.176 185.801 184.88C185.746 184.68 185.601 184.453 185.315 184.436C185.002 184.419 184.692 184.365 184.379 184.365C178.876 184.36 173.376 184.36 167.873 184.365C167.56 184.365 167.232 184.365 166.941 184.458C166.756 184.518 166.537 184.735 166.498 184.917C166.416 185.295 166.429 185.699 166.429 186.092C166.426 191.68 166.424 197.266 166.429 202.855C166.429 203.227 166.49 203.6 166.527 203.972C166.986 203.945 167.441 203.896 167.9 203.896C173.412 203.891 178.925 203.891 184.44 203.896C184.901 203.896 185.359 203.93 185.82 203.948C185.842 203.807 185.872 203.664 185.872 203.523C185.872 197.622 185.872 191.72 185.865 185.818H185.867Z" fill="#545453"></path><path d="M166.492 203.975V204.004C166.507 204.009 166.522 204.014 166.537 204.022C166.534 204.019 166.492 203.977 166.492 203.977V203.975Z" fill="#545453"></path><path d="M164.91 203.851C161.763 203.847 158.619 203.851 155.472 203.847C155.001 203.847 154.525 203.847 154.065 203.773C153.86 203.74 153.651 203.555 153.636 203.279C153.616 202.887 153.577 202.497 153.574 202.105C153.567 199.899 153.559 197.696 153.574 195.49C153.582 194.204 153.256 194.074 152.251 194.071C150.992 194.066 149.735 194.064 148.476 194.071C147.14 194.078 145.802 194.091 144.466 194.111C144.151 194.115 143.848 194.397 143.818 194.671C143.811 194.75 143.774 194.824 143.774 194.903C143.769 197.58 143.769 200.257 143.771 202.934C143.771 203.089 143.771 203.277 143.85 203.393C143.973 203.568 144.146 203.785 144.333 203.824C144.713 203.906 145.114 203.896 145.506 203.898C147.63 203.903 149.752 203.898 151.876 203.908C152.263 203.908 152.653 203.955 153.032 204.029C153.153 204.051 153.32 204.219 153.335 204.338C153.399 204.804 153.436 205.275 153.436 205.746C153.444 208.818 153.436 211.888 153.444 214.959C153.444 215.426 153.375 215.909 153.665 216.329L153.653 216.294C153.658 216.294 153.66 216.294 153.665 216.294C153.678 213.311 153.688 210.328 153.702 207.345C153.705 206.716 153.705 206.084 153.732 205.455C153.759 204.801 154.102 204.461 154.782 204.449C156.278 204.424 157.771 204.424 159.267 204.421C160.92 204.419 162.574 204.414 164.225 204.426C164.614 204.429 165.016 204.456 165.388 204.557C165.578 204.609 165.768 204.826 165.861 205.016C165.962 205.216 165.984 205.472 165.984 205.704C165.992 208.779 165.992 211.851 165.989 214.925C165.989 215.083 165.97 215.238 165.955 215.396C165.92 215.793 165.59 216.168 165.216 216.193C164.668 216.23 164.116 216.26 163.569 216.26C160.972 216.267 158.375 216.26 155.777 216.265C155.072 216.265 154.368 216.284 153.663 216.294C153.663 216.306 153.663 216.316 153.663 216.329C153.663 216.329 153.663 216.329 153.663 216.326C153.789 216.644 154.047 216.748 154.373 216.748C157.593 216.751 160.814 216.756 164.035 216.758C164.585 216.758 165.134 216.753 165.684 216.736C166.132 216.721 166.421 216.447 166.433 216.018C166.453 215.389 166.463 214.759 166.463 214.133C166.472 210.76 166.48 207.39 166.487 204.017C165.975 203.802 165.435 203.866 164.905 203.866L164.91 203.851Z" fill="#545453"></path><path d="M166.436 203.773H152.922V217.303H166.436V203.773Z" fill="#545453"></path><path d="M439.994 9.69899C440.011 8.92672 439.745 8.30743 439.309 7.71281C438.483 6.58525 437.389 5.80311 436.154 5.19615C433.288 3.78732 430.417 2.38342 427.546 0.981991C427.261 0.841355 426.965 0.717989 426.669 0.597091C422.891 -0.927705 418.692 0.565016 416.681 3.98471C416.317 4.604 416.011 5.25784 415.691 5.9018C412.044 13.1927 408.404 20.4861 404.754 27.772C399.816 37.6339 394.87 47.4908 389.931 57.3501C389.608 57.9916 389.283 58.6356 389.017 59.3042C388.379 60.9055 388.159 62.5487 388.692 64.229C388.859 64.7594 388.995 65.322 389.276 65.7933C389.658 66.4372 389.552 66.9924 389.241 67.5968C389.022 68.0212 388.857 68.4752 388.66 68.9119C384.914 77.3032 381.171 85.6946 377.425 94.0859C375.015 99.4843 372.612 104.888 370.19 110.281C369.756 111.244 369.517 112.216 369.549 113.286C369.606 115.125 369.574 116.968 369.579 118.808C369.579 119.447 369.588 120.089 369.579 120.728C369.564 121.488 369.443 121.628 368.652 121.85C368.036 122.023 367.412 122.166 366.804 122.354C364.82 122.971 362.861 123.649 361.035 124.666C359.909 125.292 358.881 126.038 358.014 127C357.471 127.602 357.003 128.263 356.757 129.025C356.2 130.753 356.56 131.91 357.871 132.84C358.447 133.249 359.118 133.553 359.78 133.81C361.126 134.335 362.538 134.619 363.977 134.745C366.126 134.93 368.28 135.068 370.426 135.273C372.491 135.47 374.556 135.685 376.592 136.129C377.706 136.373 378.709 136.832 379.608 137.52C379.793 137.661 379.936 137.863 380.081 138.051C380.286 138.315 380.136 138.944 379.835 139.109C379.626 139.225 379.421 139.376 379.194 139.43C378.029 139.699 376.861 139.988 375.653 140.002C374.534 140.017 373.415 140.037 372.297 140.035C365.823 140.022 359.349 140 352.875 139.988C352.237 139.988 351.599 140 350.963 140.059C350.736 140.079 350.561 140.284 350.502 140.543C350.468 140.698 350.409 140.849 350.359 141.002C350.916 144.661 353.457 144.883 356.417 144.651C357.784 144.545 359.295 144.256 360.517 145.327C361.313 145.287 362.109 145.211 362.905 145.211C366.023 145.216 369.14 145.223 372.255 145.27C374.342 145.302 376.402 145.041 378.46 144.769C379.727 144.602 380.959 144.236 382.147 143.755C382.962 143.425 383.721 142.985 384.396 142.401C385.491 141.451 386.055 140.249 386.035 138.816C386.006 136.533 385.178 134.611 383.327 133.195C382.233 132.356 380.998 131.801 379.687 131.419C378.073 130.95 376.427 130.627 374.754 130.474C372.447 130.262 370.135 130.089 367.826 129.889C366.87 129.808 365.917 129.706 364.963 129.608C364.726 129.583 364.492 129.531 364.256 129.489C364.034 129.45 363.967 129.349 364.058 129.196C364.098 129.129 364.127 129.038 364.187 129.006C365.468 128.315 366.875 127.982 368.27 127.668C369.325 127.432 370.204 126.985 371.028 126.319C371.959 125.564 372.93 124.861 373.889 124.14C376.382 122.27 378.874 120.395 381.378 118.539C381.967 118.103 382.445 117.602 382.795 116.948C383.472 115.68 384.207 114.441 384.907 113.183C391.72 100.967 398.529 88.7491 405.346 76.5334C405.654 75.9808 405.927 75.3491 406.39 74.9568C406.78 74.6262 407.418 74.5892 407.948 74.4288C410.119 73.7725 411.763 72.4673 412.817 70.4466C413.113 69.8791 413.399 69.3067 413.685 68.7367C417.904 60.3035 422.125 51.8702 426.341 43.437C430.664 34.7891 434.976 26.1337 439.306 17.4883C439.742 16.6149 440.031 15.7464 439.996 14.7446C439.939 13.0669 439.952 11.3842 439.991 9.70393L439.994 9.69899ZM378.159 118.52C377.605 118.966 377.053 119.42 376.481 119.847C375.081 120.896 373.674 121.934 372.262 122.966C372.151 123.047 371.971 123.035 371.821 123.059C371.634 123.092 371.511 122.882 371.501 122.519C371.493 122.201 371.488 121.883 371.488 121.564C371.488 120.767 371.488 119.973 371.488 119.176H371.483C371.483 117.982 371.479 116.788 371.486 115.593C371.488 115.184 371.925 114.944 372.336 115.105C372.41 115.134 372.486 115.157 372.558 115.191C374.409 116.107 376.259 117.024 378.107 117.945C378.314 118.048 378.344 118.369 378.159 118.517V118.52ZM431.694 17.4784C431.524 17.9225 431.265 18.3346 431.051 18.7639C425.553 29.7656 420.057 40.7698 414.555 51.7691C414.234 52.4081 413.902 53.0595 413.468 53.622C412.536 54.831 410.944 54.9198 409.762 54.4535C408.692 54.0316 407.889 52.7831 407.938 51.5964C407.955 51.2065 408.046 50.8068 408.182 50.4367C408.345 49.9877 408.581 49.5658 408.796 49.1364C414.333 38.0656 419.873 26.9924 425.412 15.9215C425.627 15.4922 425.846 15.0654 426.078 14.6459C426.62 13.664 427.482 13.1458 428.567 12.9731C429.821 12.7733 431.425 13.7084 431.834 14.9075C431.96 15.28 431.982 15.6871 432.059 16.1165C431.945 16.5581 431.864 17.0343 431.696 17.4735L431.694 17.4784Z" fill="#545453"></path></g><defs><clipPath id="clip0_967_1715"><rect width="440" height="220" fill="white"></rect></clipPath></defs></svg>